Coordinates
version=1
nRows=15
nColumns=42
inDegrees=yes

Units are S.I. units (second, meters, Newtons, ...)
If the header above contains a line with 'inDegrees', this indicates whether rotational values are in degrees (yes) or radians (no).

endheader
time	pelvis_tilt	pelvis_list	pelvis_rotation	pelvis_tx	pelvis_ty	pelvis_tz	hip_flexion_r	hip_adduction_r	hip_rotation_r	knee_angle_r	knee_adduction_r	knee_angle_r_beta	ankle_angle_r	subtalar_angle_r	mtp_angle_r	hip_flexion_l	hip_adduction_l	hip_rotation_l	knee_angle_l	knee_adduction_l	knee_angle_l_beta	ankle_angle_l	subtalar_angle_l	mtp_angle_l	lumbar_extension	lumbar_bending	lumbar_rotation	arm_flex_r	arm_add_r	arm_rot_r	elbow_flex_r	pro_sup_r	wrist_flex_r	wrist_dev_r	arm_flex_l	arm_add_l	arm_rot_l	elbow_flex_l	pro_sup_l	wrist_flex_l	wrist_dev_l
      0.38000000	      4.93759541	      8.59155661	      4.91401186	     -0.60422927	      0.97380035	     -0.46817893	     24.76072220	    -15.43470721	    -36.82488556	     19.47428950	     -7.35239346	      0.33989047	      4.47606095	     31.63189472	     -9.30750105	    -14.02642196	      8.37120635	    -11.70644727	      8.09559616	     -6.08865032	      0.14129481	     17.78654000	     28.64771577	     -9.30750105	    -25.55200547	     -9.32254592	    -10.46466276	    -14.45629691	    -11.49349495	     19.20440599	     40.37057295	     90.00000001	      0.00000000	      0.00000000	     29.57761453	    -28.87115261	      5.87973446	     68.45702072	     90.00000001	      0.00000000	      0.00000000
      0.39000000	      4.91685990	      8.56280875	      5.08145706	     -0.59446594	      0.97274302	     -0.46682512	     24.72745756	    -15.35657557	    -35.94439885	     20.60112130	     -7.56817213	      0.35955740	      3.23921042	     30.31832796	     -9.25857835	    -14.54307805	      8.13000225	    -11.44277987	      8.29152482	     -6.12471227	      0.14471441	     18.05898205	     28.66747105	     -9.25857835	    -25.44243282	     -9.10221255	    -10.56689303	    -14.94581015	    -11.45213589	     19.14982788	     40.22675269	     90.00000001	      0.00000000	      0.00000000	     29.36381552	    -28.66089846	      5.64969474	     68.83713045	     90.00000001	      0.00000000	      0.00000000
      0.40000000	      4.87561681	      8.53915710	      5.17413760	     -0.58484575	      0.97187260	     -0.46537075	     24.78520403	    -15.28631471	    -35.12937877	     21.70735708	     -7.78834232	      0.37886485	      2.31828966	     29.47087839	     -9.23336907	    -14.99214025	      7.91199540	    -11.31764927	      8.52606698	     -6.16490873	      0.14880794	     18.16077599	     28.50188119	     -9.23336907	    -25.32578039	     -8.91579226	    -10.56061910	    -15.38726670	    -11.42330262	     19.15633650	     40.04250992	     90.00000001	      0.00000000	      0.00000000	     29.18493931	    -28.38456865	      5.58704769	     69.05361151	     90.00000001	      0.00000000	      0.00000000
      0.41000000	      4.79177581	      8.46937167	      5.37575577	     -0.57540085	      0.97136247	     -0.46387751	     24.77962399	    -15.08649619	    -34.38316095	     22.46767441	     -8.10594497	      0.39213489	      1.89356669	     29.20483960	     -9.22270652	    -15.30063910	      7.63167683	    -11.12633446	      8.89765555	     -6.27411942	      0.15529339	     18.09166662	     28.38165100	     -9.22270652	    -25.20425036	     -8.64477313	    -10.67157574	    -15.74074953	    -11.39044716	     19.17117493	     39.93145606	     90.00000001	      0.00000000	      0.00000000	     28.95143797	    -28.18937273	      5.62593020	     69.07815298	     90.00000001	      0.00000000	      0.00000000
      0.42000000	      4.52332473	      8.44824398	      5.36023861	     -0.56643914	      0.97101766	     -0.46230964	     25.07420160	    -14.90715350	    -32.48723475	     23.44483389	     -7.83508243	      0.40918954	      0.13975902	     25.35250736	     -9.11822061	    -15.42933646	      7.53807845	    -10.70564120	      9.18994138	     -6.33316211	      0.16039474	     17.94771350	     27.58197325	     -9.11822061	    -24.94895847	     -8.51414593	    -10.56875605	    -15.72673826	    -11.29912972	     19.07253112	     39.23257661	     90.00000001	      0.00000000	      0.00000000	     28.57621862	    -27.67902865	      5.04853660	     69.34127144	     90.00000001	      0.00000000	      0.00000000
      0.43000000	      4.39139581	      8.41558353	      5.42106337	     -0.55732211	      0.97107917	     -0.46061516	     25.23549440	    -14.79753791	    -31.88646166	     24.36287980	     -8.03951903	      0.42521247	     -0.37130585	     24.74491058	     -9.08656083	    -15.60034850	      7.35400934	    -10.66512863	      9.63400073	     -6.45254004	      0.16814503	     17.65369992	     27.24779203	     -9.08656083	    -24.84073445	     -8.34001835	    -10.47284474	    -15.87836535	    -11.27356384	     19.09453282	     38.99961626	     90.00000001	      0.00000000	      0.00000000	     28.35713537	    -27.33235227	      5.14929864	     69.26619502	     90.00000001	      0.00000000	      0.00000000
      0.44000000	      4.32353256	      8.30388697	      5.51476250	     -0.54827979	      0.97161674	     -0.45879048	     25.19601813	    -14.53925574	    -31.29747600	     25.08189853	     -8.20353471	      0.43776171	     -0.53805737	     24.51862849	     -9.07486135	    -15.80074027	      7.03502530	    -10.50440175	     10.13299450	     -6.50846551	      0.17685412	     17.40002220	     27.07251949	     -9.07486135	    -24.81721531	     -8.07686897	    -10.43190166	    -15.93272174	    -11.27082719	     19.09717275	     38.88841128	     90.00000001	      0.00000000	      0.00000000	     28.01514155	    -27.05319091	      5.26664201	     69.16543764	     90.00000001	      0.00000000	      0.00000000
      0.45000000	      4.13505825	      8.21212516	      5.59341393	     -0.53953160	      0.97250331	     -0.45688233	     25.12575554	    -14.14059996	    -29.49202858	     25.69245460	     -7.87960621	      0.44841793	     -0.67338116	     21.28609088	     -8.98299106	    -15.78113827	      6.73915287	    -10.38819435	     10.73613816	     -6.51219685	      0.18738096	     16.61858420	     26.09173550	     -8.98299106	    -24.69810196	     -7.87396441	    -10.27496046	    -15.62127097	    -11.04112191	     19.09761839	     37.74689363	     90.00000001	      0.00000000	      0.00000000	     27.90637324	    -26.55595389	      5.40270610	     68.55534905	     90.00000001	      0.00000000	      0.00000000
      0.46000000	      4.10723413	      8.11682087	      5.70741695	     -0.53060506	      0.97376194	     -0.45491329	     24.86450691	    -13.85655823	    -29.08455867	     26.23663764	     -7.97866361	      0.45791571	     -0.58824960	     21.11717474	     -8.97270112	    -15.91629401	      6.39732636	    -10.25057578	     11.37177913	     -6.54238392	      0.19847499	     16.21741785	     25.90166230	     -8.97270112	    -24.75335229	     -7.64244879	    -10.21531857	    -15.55096597	    -11.04224994	     19.08233261	     37.71766002	     90.00000001	      0.00000000	      0.00000000	     27.47938981	    -26.24455259	      5.56977188	     68.42271378	     90.00000001	      0.00000000	      0.00000000
      0.47000000	      4.13552792	      7.95621412	      5.89230595	     -0.52183089	      0.97546235	     -0.45283595	     24.35012149	    -13.46530064	    -28.75053449	     26.54409388	     -7.97277488	      0.46328184	      0.09678727	     20.30062397	     -8.95076362	    -15.89600551	      5.80497814	    -10.57601569	     12.34776167	     -6.40727313	      0.21550910	     15.07647406	     25.21032760	     -8.95076362	    -24.90531386	     -7.32939034	    -10.14439322	    -15.29751144	    -10.93391104	     19.10546348	     37.33942305	     90.00000001	      0.00000000	      0.00000000	     27.22976473	    -25.87997083	      5.83978269	     68.01433086	     90.00000001	      0.00000000	      0.00000000
      0.48000000	      4.03637768	      7.87913522	      6.00722629	     -0.51331053	      0.97735491	     -0.45076266	     23.84540556	    -13.06316047	    -27.94653575	     26.60411708	     -7.78262165	      0.46432944	      0.42461639	     18.65552140	     -8.88140224	    -15.82623026	      5.46144522	    -10.20768197	     13.15587312	     -6.31626554	      0.22961330	     13.99123174	     24.04307566	     -8.88140224	    -24.92407040	     -7.14809956	     -9.95934548	    -14.78108222	    -10.69225788	     19.00479185	     36.26103332	     90.00000001	      0.00000000	      0.00000000	     27.12428655	    -25.50620642	      6.50742713	     67.03587801	     90.00000001	      0.00000000	      0.00000000
      0.49000000	      4.01282643	      7.79532267	      6.17567938	     -0.50480196	      0.97946680	     -0.44872217	     23.19067978	    -12.76859370	    -28.34127390	     26.48320808	     -7.90312553	      0.46221918	      0.87481465	     18.65228364	     -8.86607179	    -15.65261966	      4.97187418	    -10.26928941	     14.26251793	     -6.15829440	      0.24892790	     12.91839688	     23.46039701	     -8.86607179	    -25.05316668	     -6.93437098	     -9.90796380	    -14.46007133	    -10.66528372	     18.96135741	     36.14100814	     90.00000001	      0.00000000	      0.00000000	     26.68688893	    -25.20193298	      6.78902459	     66.68417842	     90.00000001	      0.00000000	      0.00000000
      0.50000000	      3.93546706	      7.80873240	      6.35161241	     -0.49642479	      0.98170450	     -0.44672379	     22.58535417	    -12.69976630	    -29.62979366	     26.25281364	     -8.26097742	      0.45819804	      1.37194878	     20.40100123	     -8.80407474	    -15.44474065	      4.63736216	     -9.75367251	     15.36559370	     -5.91886226	      0.26818020	     11.44111884	     21.71238984	     -8.80407474	    -25.11996334	     -6.84237825	     -9.75546852	    -13.91397410	    -10.45749748	     18.82247639	     35.32807739	     90.00000001	      0.00000000	      0.00000000	     26.55285205	    -24.87333817	      7.60199108	     65.69142459	     90.00000001	      0.00000000	      0.00000000
      0.51000000	      3.87276336	      7.79140767	      6.59372641	     -0.48814797	      0.98406609	     -0.44483442	     21.87997918	    -12.70533634	    -31.57008166	     25.87955528	     -8.66833266	      0.45168345	      1.90313739	     22.87382410	     -8.73015482	    -15.14971229	      4.25595669	     -9.10530141	     16.61406481	     -5.67152899	      0.28997013	      9.93665039	     19.86332198	     -8.73015482	    -25.22755164	     -6.68307085	     -9.75159772	    -13.39451979	    -10.36745100	     18.57106199	     35.05049417	     90.00000001	      0.00000000	      0.00000000	     26.14861403	    -24.62100383	      8.28739073	     65.05477955	     90.00000001	      0.00000000	      0.00000000
      0.52000000	      3.79511395	      7.87510882	      6.78951467	     -0.48007754	      0.98644893	     -0.44289413	     21.05690771	    -12.68247746	    -32.40666573	     25.33798571	     -8.66766040	      0.44223128	      2.19780620	     23.24415517	     -8.72009030	    -14.63626625	      3.87314879	     -8.95543245	     18.22194513	     -5.34648802	      0.31803294	      8.71469102	     19.28891472	     -8.72009030	    -25.34508273	     -6.67690633	     -9.71900918	    -12.95686764	    -10.34926020	     18.54198928	     35.05169866	     90.00000001	      0.00000000	      0.00000000	     25.70899972	    -24.39658800	      8.55552547	     64.68855239	     90.00000001	      0.00000000	      0.00000000
